 http://imageshack.us/m/824/1249/desertsonhernehr.jpg

Country.......: USA
Genre.........: Drama
Date release..: 03.2010 [World]
Director......: James Mann, Brandon Nicholas
Writers.......: James Mann
Duration......: 93 min.
More..........: http://www.imdb.com/title/tt1446682
Trailer.......: http://www.imdb.com/video/wab/vi2233270809
Trailer.......:

Pilot :
In this visually arresting and gritty drama, a teenage boy named Phillip is abandoned in the desert by his Step Father. He struggles against the odds for days, surviving just long enough to make his way into an abandoned mining town inhabited by two mysterious orphans, Jack and Lucy. They reluctantly invite the desperate stranger into their broken dystopia. But as a bond forms between Lucy and Phillip, jealousy begins to boil inside of Jack. At his wits end, Jack leads Phillip and Lucy on a long journey back into civilization and on spree of increasingly dangerous crimes. But when things go wrong and the unthinkable happens, the burden of guilt weighs too heavily upon their consciences and the group violently unravels.

Cats :
John Bain   	 ...  	Phillip
Erica Curtis 	... 	Lucy (as Erica Hoag)
Nathan Halliday 	... 	Jack
Bill Oberst Jr. 	... 	Step Dad
Chauna Wertlow 	... 	Maid
Elvis Winterbottom 	... 	Priest 

Data Technical :
!!! SAMPLE !!!
Audio.....: English
Subtitles.: None
Format                           : AVI
Format/Info                      : Audio Video Interleave
File size                        : 700 MiB
Duration                         : 1h 33mn
Overall bit rate                 : 1 050 Kbps
Writing application              : VirtualDubMod 1.5.4.1 (build 2178/release)
Writing library                  : VirtualDubMod build 2178/release
Video
ID                               : 0
Format                           : MPEG-4 Visual
Format profile                   : Advanced Simple@L5
Format settings, BVOP            : Yes
Format settings, QPel            : No
Format settings, GMC             : No warppoints
Format settings, Matrix          : Custom
Codec ID                         : XVID
Codec ID/Hint                    : XviD
Duration                         : 1h 33mn
Bit rate                         : 925 Kbps
Width                            : 640 pixels
Height                           : 272 pixels
Display aspect ratio             : 2.35:1
Frame rate                       : 23.976 fps
Color space                      : YUV
Chroma subsampling               : 4:2:0
Bit depth                        : 8 bits
Scan type                        : Progressive
Bits/(Pixel*Frame)               : 0.222
Stream size                      : 617 MiB (88%)
Writing library                  : XviD 1.1.0 (UTC 2005-11-22)
Audio
ID                               : 1
Format                           : MPEG Audio
Format version                   : Version 1
Format profile                   : Layer 3
Mode                             : Joint stereo
Mode extension                   : MS Stereo
Codec ID                         : 55
Codec ID/Hint                    : MP3
Duration                         : 1h 33mn
Bit rate mode                    : Variable
Bit rate                         : 113 Kbps
Nominal bit rate                 : 128 Kbps
Channel(s)                       : 2 channels
Sampling rate                    : 48.0 KHz
Stream size                      : 75.1 MiB (11%)
Alignment                        : Aligned on interleaves
Interleave, duration             : 24 ms (0.58 video frame)
Interleave, preload duration     : 163 ms
Writing library                  : LAME3.98r
Encoding settings                : -m j -V 4 -q 2 -lowpass 17 --abr 128

Screen : 
http://imageshack.us/m/804/5521/desertson2010s1.jpg 
http://imageshack.us/m/864/8418/desertson2010s2.jpg 
http://imageshack.us/m/835/2122/desertson2010s3.jpg 
http://imageshack.us/m/607/8461/desertson2010s4.jpg 
http://imageshack.us/m/810/1711/desertson2010s5.jpg